<?xml version="1.0" ?><!DOCTYPE svg  PUBLIC '-//W3C//DTD SVG 1.1//EN'  'http://www.w3.org/Graphics/SVG/1.1/DTD/svg11.dtd'><svg height="100%" style="fill-rule:evenodd;clip-rule:evenodd;stroke-linejoin:round;stroke-miterlimit:2;" version="1.1" viewBox="0 0 24 24" width="100%" xml:space="preserve" xmlns="http://www.w3.org/2000/svg" xmlns:serif="http://www.serif.com/" xmlns:xlink="http://www.w3.org/1999/xlink"><g id="Icon"><path d="M8.75,13.765l0,-7.085c-0,-1.337 0.962,-2.481 2.279,-2.71c1.97,-0.342 5.27,-0.916 7.5,-1.304c0.8,-0.139 1.62,0.082 2.241,0.605c0.621,0.522 0.98,1.292 0.98,2.104l0,10.372c-0,2.209 -1.791,4 -4,4l-0,0c-2.209,0 -4,-1.791 -4,-4l0,0c0,-2.209 1.791,-4 4,-4l2.25,0c0.085,0 0.168,0.006 0.25,0.018l-0,-6.39c-0,-0.369 -0.163,-0.719 -0.445,-0.956c-0.283,-0.238 -0.656,-0.339 -1.019,-0.275c-2.23,0.388 -5.53,0.961 -7.5,1.304c-0.599,0.104 -1.036,0.624 -1.036,1.232l0,11.067c-0,2.209 -1.791,4 -4,4l-0,0c-2.209,0 -4,-1.791 -4,-4l0,0c0,-2.209 1.791,-4 4,-4l2.25,0c0.085,0 0.168,0.006 0.25,0.018Zm0,3.982l0,-2.25c-0,-0.138 -0.112,-0.25 -0.25,-0.25l-2.25,0c-1.381,0 -2.5,1.12 -2.5,2.5c-0,1.381 1.119,2.5 2.5,2.5c1.381,0 2.5,-1.119 2.5,-2.5Zm11.5,-4.25c-0,-0.138 -0.112,-0.25 -0.25,-0.25l-2.25,0c-1.381,0 -2.5,1.12 -2.5,2.5c-0,1.381 1.119,2.5 2.5,2.5c1.381,0 2.5,-1.119 2.5,-2.5l-0,-2.25Z"/></g></svg>